STARTFONT 2.1
FONT -ISO8859-1
SIZE 16 75 75
FONTBOUNDINGBOX 16 16 0 -2
STARTPROPERTIES 7
PIXEL_SIZE 16
POINT_SIZE 160
FONT_ASCENT 14
FONT_DESCENT 2
CHARSET_REGISTRY "iso10646"
CHARSET_ENCODING "1"
DEFAULT_CHAR 12288
ENDPROPERTIES
CHARS 193
STARTCHAR U+0020
ENCODING 32
SWIDTH 500 0
DWIDTH 8 0
BBX 8 16 0 -2
BITMAP
00
00
00
00
00
00
00
00
00
00
00
00
00
00
00
00
ENDCHAR
STARTCHAR U+0021
ENCODING 33
SWIDTH 500 0
DWIDTH 8 0
BBX 8 16 0 -2
BITMAP
00
00
00
18
18
18
18
18
18
18
18
00
18
18
00
00
ENDCHAR
STARTCHAR U+0022
ENCODING 34
SWIDTH 500 0
DWIDTH 8 0
BBX 8 16 0 -2
BITMAP
00
00
00
6C
6C
6C
00
00
00
00
00
00
00
00
00
00
ENDCHAR
STARTCHAR U+0023
ENCODING 35
SWIDTH 500 0
DWIDTH 8 0
BBX 8 16 0 -2
BITMAP
00
00
00
6C
6C
6C
FE
6C
6C
6C
FE
6C
6C
6C
00
00
ENDCHAR
STARTCHAR U+0024
ENCODING 36
SWIDTH 500 0
DWIDTH 8 0
BBX 8 16 0 -2
BITMAP
00
00
18
3C
7E
5A
58
7C
3E
1A
5A
7E
3C
18
00
00
ENDCHAR
STARTCHAR U+0025
ENCODING 37
SWIDTH 500 0
DWIDTH 8 0
BBX 8 16 0 -2
BITMAP
00
00
00
66
D6
DC
DC
78
38
3C
76
76
D6
CC
00
00
ENDCHAR
STARTCHAR U+0026
ENCODING 38
SWIDTH 500 0
DWIDTH 8 0
BBX 8 16 0 -2
BITMAP
00
00
00
38
6C
6C
6C
38
70
DA
DA
CC
CE
7A
00
00
ENDCHAR
STARTCHAR U+0027
ENCODING 39
SWIDTH 500 0
DWIDTH 8 0
BBX 8 16 0 -2
BITMAP
00
00
00
18
18
18
00
00
00
00
00
00
00
00
00
00
ENDCHAR
STARTCHAR U+0028
ENCODING 40
SWIDTH 500 0
DWIDTH 8 0
BBX 8 16 0 -2
BITMAP
00
00
0C
18
30
30
60
60
60
60
30
30
18
0C
00
00
ENDCHAR
STARTCHAR U+0029
ENCODING 41
SWIDTH 500 0
DWIDTH 8 0
BBX 8 16 0 -2
BITMAP
00
00
60
30
18
18
0C
0C
0C
0C
18
18
30
60
00
00
ENDCHAR
STARTCHAR U+002A
ENCODING 42
SWIDTH 500 0
DWIDTH 8 0
BBX 8 16 0 -2
BITMAP
00
00
00
10
D6
7C
38
7C
D6
10
00
00
00
00
00
00
ENDCHAR
STARTCHAR U+002B
ENCODING 43
SWIDTH 500 0
DWIDTH 8 0
BBX 8 16 0 -2
BITMAP
00
00
00
00
00
00
18
18
18
7E
18
18
18
00
00
00
ENDCHAR
STARTCHAR U+002C
ENCODING 44
SWIDTH 500 0
DWIDTH 8 0
BBX 8 16 0 -2
BITMAP
00
00
00
00
00
00
00
00
00
00
00
00
60
60
20
40
ENDCHAR
STARTCHAR U+002D
ENCODING 45
SWIDTH 500 0
DWIDTH 8 0
BBX 8 16 0 -2
BITMAP
00
00
00
00
00
00
00
7E
00
00
00
00
00
00
00
00
ENDCHAR
STARTCHAR U+002E
ENCODING 46
SWIDTH 500 0
DWIDTH 8 0
BBX 8 16 0 -2
BITMAP
00
00
00
00
00
00
00
00
00
00
00
00
60
60
00
00
ENDCHAR
STARTCHAR U+002F
ENCODING 47
SWIDTH 500 0
DWIDTH 8 0
BBX 8 16 0 -2
BITMAP
00
00
0C
0C
0C
18
18
18
30
30
30
60
60
60
00
00
ENDCHAR
STARTCHAR U+0030
ENCODING 48
SWIDTH 500 0
DWIDTH 8 0
BBX 8 16 0 -2
BITMAP
00
00
38
6C
C6
C6
C6
C6
C6
C6
C6
C6
6C
38
00
00
ENDCHAR
STARTCHAR U+0031
ENCODING 49
SWIDTH 500 0
DWIDTH 8 0
BBX 8 16 0 -2
BITMAP
00
00
18
78
18
18
18
18
18
18
18
18
18
18
00
00
ENDCHAR
STARTCHAR U+0032
ENCODING 50
SWIDTH 500 0
DWIDTH 8 0
BBX 8 16 0 -2
BITMAP
00
00
38
6C
C6
C6
06
06
0C
18
30
60
C0
FE
00
00
ENDCHAR
STARTCHAR U+0033
ENCODING 51
SWIDTH 500 0
DWIDTH 8 0
BBX 8 16 0 -2
BITMAP
00
00
38
6C
C6
06
0C
18
0C
06
06
C6
6C
38
00
00
ENDCHAR
STARTCHAR U+0034
ENCODING 52
SWIDTH 500 0
DWIDTH 8 0
BBX 8 16 0 -2
BITMAP
00
00
0C
1C
1C
3C
3C
6C
6C
CC
CC
FE
0C
0C
00
00
ENDCHAR
STARTCHAR U+0035
ENCODING 53
SWIDTH 500 0
DWIDTH 8 0
BBX 8 16 0 -2
BITMAP
00
00
FC
C0
C0
C0
D8
EC
C6
06
06
C6
6C
38
00
00
ENDCHAR
STARTCHAR U+0036
ENCODING 54
SWIDTH 500 0
DWIDTH 8 0
BBX 8 16 0 -2
BITMAP
00
00
38
6C
C6
C0
D8
EC
C6
C6
C6
C6
6C
38
00
00
ENDCHAR
STARTCHAR U+0037
ENCODING 55
SWIDTH 500 0
DWIDTH 8 0
BBX 8 16 0 -2
BITMAP
00
00
FE
06
06
0C
0C
18
18
18
30
30
30
30
00
00
ENDCHAR
STARTCHAR U+0038
ENCODING 56
SWIDTH 500 0
DWIDTH 8 0
BBX 8 16 0 -2
BITMAP
00
00
38
6C
C6
C6
6C
38
6C
C6
C6
C6
6C
38
00
00
ENDCHAR
STARTCHAR U+0039
ENCODING 57
SWIDTH 500 0
DWIDTH 8 0
BBX 8 16 0 -2
BITMAP
00
00
38
6C
C6
C6
C6
C6
6E
36
06
C6
6C
38
00
00
ENDCHAR
STARTCHAR U+003A
ENCODING 58
SWIDTH 500 0
DWIDTH 8 0
BBX 8 16 0 -2
BITMAP
00
00
00
00
00
00
18
18
00
00
00
00
18
18
00
00
ENDCHAR
STARTCHAR U+003B
ENCODING 59
SWIDTH 500 0
DWIDTH 8 0
BBX 8 16 0 -2
BITMAP
00
00
00
00
00
00
18
18
00
00
00
00
18
18
08
10
ENDCHAR
STARTCHAR U+003C
ENCODING 60
SWIDTH 500 0
DWIDTH 8 0
BBX 8 16 0 -2
BITMAP
00
00
00
00
00
0E
38
60
C0
60
38
0E
00
00
00
00
ENDCHAR
STARTCHAR U+003D
ENCODING 61
SWIDTH 500 0
DWIDTH 8 0
BBX 8 16 0 -2
BITMAP
00
00
00
00
00
00
00
7E
00
00
7E
00
00
00
00
00
ENDCHAR
STARTCHAR U+003E
ENCODING 62
SWIDTH 500 0
DWIDTH 8 0
BBX 8 16 0 -2
BITMAP
00
00
00
00
00
E0
38
0C
06
0C
38
E0
00
00
00
00
ENDCHAR
STARTCHAR U+003F
ENCODING 63
SWIDTH 500 0
DWIDTH 8 0
BBX 8 16 0 -2
BITMAP
00
00
7C
C6
C6
06
0C
18
30
30
30
00
30
30
00
00
ENDCHAR
STARTCHAR U+0040
ENCODING 64
SWIDTH 500 0
DWIDTH 8 0
BBX 8 16 0 -2
BITMAP
00
00
00
38
6C
C6
CE
D6
D6
D6
DC
C2
66
3C
00
00
ENDCHAR
STARTCHAR U+0041
ENCODING 65
SWIDTH 500 0
DWIDTH 8 0
BBX 8 16 0 -2
BITMAP
00
00
00
10
38
38
6C
6C
C6
C6
FE
C6
C6
C6
00
00
ENDCHAR
STARTCHAR U+0042
ENCODING 66
SWIDTH 500 0
DWIDTH 8 0
BBX 8 16 0 -2
BITMAP
00
00
00
FC
C6
C6
C6
C6
FC
C6
C6
C6
C6
FC
00
00
ENDCHAR
STARTCHAR U+0043
ENCODING 67
SWIDTH 500 0
DWIDTH 8 0
BBX 8 16 0 -2
BITMAP
00
00
00
3C
66
C2
C0
C0
C0
C0
C0
C2
66
3C
00
00
ENDCHAR
STARTCHAR U+0044
ENCODING 68
SWIDTH 500 0
DWIDTH 8 0
BBX 8 16 0 -2
BITMAP
00
00
00
F8
CC
C6
C6
C6
C6
C6
C6
C6
CC
F8
00
00
ENDCHAR
STARTCHAR U+0045
ENCODING 69
SWIDTH 500 0
DWIDTH 8 0
BBX 8 16 0 -2
BITMAP
00
00
00
FE
C0
C0
C0
C0
FC
C0
C0
C0
C0
FE
00
00
ENDCHAR
STARTCHAR U+0046
ENCODING 70
SWIDTH 500 0
DWIDTH 8 0
BBX 8 16 0 -2
BITMAP
00
00
00
FE
C0
C0
C0
C0
FC
C0
C0
C0
C0
C0
00
00
ENDCHAR
STARTCHAR U+0047
ENCODING 71
SWIDTH 500 0
DWIDTH 8 0
BBX 8 16 0 -2
BITMAP
00
00
00
3C
66
C2
C0
C0
CE
C6
C6
C6
66
3C
00
00
ENDCHAR
STARTCHAR U+0048
ENCODING 72
SWIDTH 500 0
DWIDTH 8 0
BBX 8 16 0 -2
BITMAP
00
00
00
C6
C6
C6
C6
C6
FE
C6
C6
C6
C6
C6
00
00
ENDCHAR
STARTCHAR U+0049
ENCODING 73
SWIDTH 500 0
DWIDTH 8 0
BBX 8 16 0 -2
BITMAP
00
00
00
18
18
18
18
18
18
18
18
18
18
18
00
00
ENDCHAR
STARTCHAR U+004A
ENCODING 74
SWIDTH 500 0
DWIDTH 8 0
BBX 8 16 0 -2
BITMAP
00
00
00
06
06
06
06
06
06
06
06
C6
6C
38
00
00
ENDCHAR
STARTCHAR U+004B
ENCODING 75
SWIDTH 500 0
DWIDTH 8 0
BBX 8 16 0 -2
BITMAP
00
00
00
C6
C6
CC
D8
F0
D8
D8
CC
CC
C6
C6
00
00
ENDCHAR
STARTCHAR U+004C
ENCODING 76
SWIDTH 500 0
DWIDTH 8 0
BBX 8 16 0 -2
BITMAP
00
00
00
C0
C0
C0
C0
C0
C0
C0
C0
C0
C0
FE
00
00
ENDCHAR
STARTCHAR U+004D
ENCODING 77
SWIDTH 500 0
DWIDTH 8 0
BBX 8 16 0 -2
BITMAP
00
00
00
C6
C6
EE
FE
D6
C6
C6
C6
C6
C6
C6
00
00
ENDCHAR
STARTCHAR U+004E
ENCODING 78
SWIDTH 500 0
DWIDTH 8 0
BBX 8 16 0 -2
BITMAP
00
00
00
C6
E6
E6
F6
F6
DE
DE
DE
CE
CE
C6
00
00
ENDCHAR
STARTCHAR U+004F
ENCODING 79
SWIDTH 500 0
DWIDTH 8 0
BBX 8 16 0 -2
BITMAP
00
00
00
38
6C
C6
C6
C6
C6
C6
C6
C6
6C
38
00
00
ENDCHAR
STARTCHAR U+0050
ENCODING 80
SWIDTH 500 0
DWIDTH 8 0
BBX 8 16 0 -2
BITMAP
00
00
00
F8
CC
C6
C2
C6
CC
F8
C0
C0
C0
C0
00
00
ENDCHAR
STARTCHAR U+0051
ENCODING 81
SWIDTH 500 0
DWIDTH 8 0
BBX 8 16 0 -2
BITMAP
00
00
00
38
6C
C6
C6
C6
C6
C6
C6
D6
6C
3C
06
00
ENDCHAR
STARTCHAR U+0052
ENCODING 82
SWIDTH 500 0
DWIDTH 8 0
BBX 8 16 0 -2
BITMAP
00
00
00
F8
CC
C6
C2
C6
CC
F8
D8
CC
CC
C6
00
00
ENDCHAR
STARTCHAR U+0053
ENCODING 83
SWIDTH 500 0
DWIDTH 8 0
BBX 8 16 0 -2
BITMAP
00
00
00
38
6C
C6
C0
60
38
0C
06
C6
6C
38
00
00
ENDCHAR
STARTCHAR U+0054
ENCODING 84
SWIDTH 500 0
DWIDTH 8 0
BBX 8 16 0 -2
BITMAP
00
00
00
7E
18
18
18
18
18
18
18
18
18
18
00
00
ENDCHAR
STARTCHAR U+0055
ENCODING 85
SWIDTH 500 0
DWIDTH 8 0
BBX 8 16 0 -2
BITMAP
00
00
00
C6
C6
C6
C6
C6
C6
C6
C6
C6
C6
7C
00
00
ENDCHAR
STARTCHAR U+0056
ENCODING 86
SWIDTH 500 0
DWIDTH 8 0
BBX 8 16 0 -2
BITMAP
00
00
00
C6
C6
C6
C6
6C
6C
6C
38
38
10
10
00
00
ENDCHAR
STARTCHAR U+0057
ENCODING 87
SWIDTH 500 0
DWIDTH 8 0
BBX 8 16 0 -2
BITMAP
00
00
00
D6
D6
D6
D6
D6
D6
7C
6C
6C
6C
6C
00
00
ENDCHAR
STARTCHAR U+0058
ENCODING 88
SWIDTH 500 0
DWIDTH 8 0
BBX 8 16 0 -2
BITMAP
00
00
00
C6
C6
6C
6C
38
10
38
6C
6C
C6
C6
00
00
ENDCHAR
STARTCHAR U+0059
ENCODING 89
SWIDTH 500 0
DWIDTH 8 0
BBX 8 16 0 -2
BITMAP
00
00
00
66
66
66
3C
3C
18
18
18
18
18
18
00
00
ENDCHAR
STARTCHAR U+005A
ENCODING 90
SWIDTH 500 0
DWIDTH 8 0
BBX 8 16 0 -2
BITMAP
00
00
00
FE
06
0C
0C
18
18
30
60
60
C0
FE
00
00
ENDCHAR
STARTCHAR U+005B
ENCODING 91
SWIDTH 500 0
DWIDTH 8 0
BBX 8 16 0 -2
BITMAP
00
00
3C
30
30
30
30
30
30
30
30
30
30
30
3C
00
ENDCHAR
STARTCHAR U+005C
ENCODING 92
SWIDTH 500 0
DWIDTH 8 0
BBX 8 16 0 -2
BITMAP
00
00
60
60
60
30
30
30
18
18
18
0C
0C
0C
00
00
ENDCHAR
STARTCHAR U+005D
ENCODING 93
SWIDTH 500 0
DWIDTH 8 0
BBX 8 16 0 -2
BITMAP
00
00
3C
0C
0C
0C
0C
0C
0C
0C
0C
0C
0C
3C
00
00
ENDCHAR
STARTCHAR U+005E
ENCODING 94
SWIDTH 500 0
DWIDTH 8 0
BBX 8 16 0 -2
BITMAP
00
00
18
3C
3C
66
66
00
00
00
00
00
00
00
00
00
ENDCHAR
STARTCHAR U+005F
ENCODING 95
SWIDTH 500 0
DWIDTH 8 0
BBX 8 16 0 -2
BITMAP
00
00
00
00
00
00
00
00
00
00
00
00
00
00
00
FE
ENDCHAR
STARTCHAR U+0060
ENCODING 96
SWIDTH 500 0
DWIDTH 8 0
BBX 8 16 0 -2
BITMAP
00
00
00
30
18
0C
00
00
00
00
00
00
00
00
00
00
ENDCHAR
STARTCHAR U+0061
ENCODING 97
SWIDTH 500 0
DWIDTH 8 0
BBX 8 16 0 -2
BITMAP
00
00
00
00
00
00
3C
66
06
3E
66
66
66
3E
00
00
ENDCHAR
STARTCHAR U+0062
ENCODING 98
SWIDTH 500 0
DWIDTH 8 0
BBX 8 16 0 -2
BITMAP
00
00
00
C0
C0
C0
FC
C6
C6
C6
C6
C6
C6
FC
00
00
ENDCHAR
STARTCHAR U+0063
ENCODING 99
SWIDTH 500 0
DWIDTH 8 0
BBX 8 16 0 -2
BITMAP
00
00
00
00
00
00
7C
C6
C0
C0
C0
C0
C6
7C
00
00
ENDCHAR
STARTCHAR U+0064
ENCODING 100
SWIDTH 500 0
DWIDTH 8 0
BBX 8 16 0 -2
BITMAP
00
00
00
06
06
06
7E
C6
C6
C6
C6
C6
C6
7E
00
00
ENDCHAR
STARTCHAR U+0065
ENCODING 101
SWIDTH 500 0
DWIDTH 8 0
BBX 8 16 0 -2
BITMAP
00
00
00
00
00
00
7C
C6
C6
FE
C0
C0
C6
7C
00
00
ENDCHAR
STARTCHAR U+0066
ENCODING 102
SWIDTH 500 0
DWIDTH 8 0
BBX 8 16 0 -2
BITMAP
00
00
00
0E
18
18
7E
18
18
18
18
18
18
18
00
00
ENDCHAR
STARTCHAR U+0067
ENCODING 103
SWIDTH 500 0
DWIDTH 8 0
BBX 8 16 0 -2
BITMAP
00
00
00
00
00
00
7E
C6
C6
C6
C6
C6
7E
06
C6
7C
ENDCHAR
STARTCHAR U+0068
ENCODING 104
SWIDTH 500 0
DWIDTH 8 0
BBX 8 16 0 -2
BITMAP
00
00
00
C0
C0
C0
FC
C6
C6
C6
C6
C6
C6
C6
00
00
ENDCHAR
STARTCHAR U+0069
ENCODING 105
SWIDTH 500 0
DWIDTH 8 0
BBX 8 16 0 -2
BITMAP
00
00
00
18
18
00
18
18
18
18
18
18
18
18
00
00
ENDCHAR
STARTCHAR U+006A
ENCODING 106
SWIDTH 500 0
DWIDTH 8 0
BBX 8 16 0 -2
BITMAP
00
00
00
18
18
00
18
18
18
18
18
18
18
18
18
70
ENDCHAR
STARTCHAR U+006B
ENCODING 107
SWIDTH 500 0
DWIDTH 8 0
BBX 8 16 0 -2
BITMAP
00
00
00
C0
C0
C0
C6
CC
D8
F0
F0
D8
CC
C6
00
00
ENDCHAR
STARTCHAR U+006C
ENCODING 108
SWIDTH 500 0
DWIDTH 8 0
BBX 8 16 0 -2
BITMAP
00
00
00
18
18
18
18
18
18
18
18
18
18
18
00
00
ENDCHAR
STARTCHAR U+006D
ENCODING 109
SWIDTH 500 0
DWIDTH 8 0
BBX 8 16 0 -2
BITMAP
00
00
00
00
00
00
AC
D6
D6
D6
D6
D6
D6
D6
00
00
ENDCHAR
STARTCHAR U+006E
ENCODING 110
SWIDTH 500 0
DWIDTH 8 0
BBX 8 16 0 -2
BITMAP
00
00
00
00
00
00
DC
E6
C6
C6
C6
C6
C6
C6
00
00
ENDCHAR
STARTCHAR U+006F
ENCODING 111
SWIDTH 500 0
DWIDTH 8 0
BBX 8 16 0 -2
BITMAP
00
00
00
00
00
00
7C
C6
C6
C6
C6
C6
C6
7C
00
00
ENDCHAR
STARTCHAR U+0070
ENCODING 112
SWIDTH 500 0
DWIDTH 8 0
BBX 8 16 0 -2
BITMAP
00
00
00
00
00
00
FC
C6
C6
C6
C6
C6
C6
FC
C0
C0
ENDCHAR
STARTCHAR U+0071
ENCODING 113
SWIDTH 500 0
DWIDTH 8 0
BBX 8 16 0 -2
BITMAP
00
00
00
00
00
00
7E
C6
C6
C6
C6
C6
C6
7E
06
06
ENDCHAR
STARTCHAR U+0072
ENCODING 114
SWIDTH 500 0
DWIDTH 8 0
BBX 8 16 0 -2
BITMAP
00
00
00
00
00
00
6E
78
70
60
60
60
60
60
00
00
ENDCHAR
STARTCHAR U+0073
ENCODING 115
SWIDTH 500 0
DWIDTH 8 0
BBX 8 16 0 -2
BITMAP
00
00
00
00
00
00
3C
66
60
38
0C
06
66
3C
00
00
ENDCHAR
STARTCHAR U+0074
ENCODING 116
SWIDTH 500 0
DWIDTH 8 0
BBX 8 16 0 -2
BITMAP
00
00
00
18
18
18
7E
18
18
18
18
18
18
0E
00
00
ENDCHAR
STARTCHAR U+0075
ENCODING 117
SWIDTH 500 0
DWIDTH 8 0
BBX 8 16 0 -2
BITMAP
00
00
00
00
00
00
66
66
66
66
66
66
66
3E
00
00
ENDCHAR
STARTCHAR U+0076
ENCODING 118
SWIDTH 500 0
DWIDTH 8 0
BBX 8 16 0 -2
BITMAP
00
00
00
00
00
00
C6
C6
6C
6C
38
38
10
10
00
00
ENDCHAR
STARTCHAR U+0077
ENCODING 119
SWIDTH 500 0
DWIDTH 8 0
BBX 8 16 0 -2
BITMAP
00
00
00
00
00
00
D6
D6
D6
D6
D6
7C
6C
6C
00
00
ENDCHAR
STARTCHAR U+0078
ENCODING 120
SWIDTH 500 0
DWIDTH 8 0
BBX 8 16 0 -2
BITMAP
00
00
00
00
00
00
C6
6C
6C
38
38
6C
6C
C6
00
00
ENDCHAR
STARTCHAR U+0079
ENCODING 121
SWIDTH 500 0
DWIDTH 8 0
BBX 8 16 0 -2
BITMAP
00
00
00
00
00
00
C6
C6
6C
6C
38
38
18
30
30
E0
ENDCHAR
STARTCHAR U+007A
ENCODING 122
SWIDTH 500 0
DWIDTH 8 0
BBX 8 16 0 -2
BITMAP
00
00
00
00
00
00
FE
06
0C
18
30
60
C0
FE
00
00
ENDCHAR
STARTCHAR U+007B
ENCODING 123
SWIDTH 500 0
DWIDTH 8 0
BBX 8 16 0 -2
BITMAP
00
00
0C
18
18
18
18
18
30
18
18
18
18
18
0C
00
ENDCHAR
STARTCHAR U+007C
ENCODING 124
SWIDTH 500 0
DWIDTH 8 0
BBX 8 16 0 -2
BITMAP
00
00
00
18
18
18
18
18
18
18
18
18
18
18
00
00
ENDCHAR
STARTCHAR U+007D
ENCODING 125
SWIDTH 500 0
DWIDTH 8 0
BBX 8 16 0 -2
BITMAP
00
00
30
18
18
18
18
18
0C
18
18
18
18
18
30
00
ENDCHAR
STARTCHAR U+007E
ENCODING 126
SWIDTH 500 0
DWIDTH 8 0
BBX 8 16 0 -2
BITMAP
00
00
00
00
00
00
72
FE
9C
00
00
00
00
00
00
00
ENDCHAR
STARTCHAR U+00A0
ENCODING 160
SWIDTH 500 0
DWIDTH 8 0
BBX 8 16 0 -2
BITMAP
00
00
00
00
00
00
00
00
00
00
00
00
00
00
00
00
ENDCHAR
STARTCHAR U+00A1
ENCODING 161
SWIDTH 500 0
DWIDTH 8 0
BBX 8 16 0 -2
BITMAP
00
00
00
18
18
00
18
18
18
18
18
18
18
18
00
00
ENDCHAR
STARTCHAR U+00A2
ENCODING 162
SWIDTH 500 0
DWIDTH 8 0
BBX 8 16 0 -2
BITMAP
00
00
00
00
0C
0C
7C
FE
DA
D8
D8
DA
FE
7C
30
30
ENDCHAR
STARTCHAR U+00A3
ENCODING 163
SWIDTH 500 0
DWIDTH 8 0
BBX 8 16 0 -2
BITMAP
00
00
00
3C
66
60
60
FC
30
30
70
DA
DA
6C
00
00
ENDCHAR
STARTCHAR U+00A4
ENCODING 164
SWIDTH 500 0
DWIDTH 8 0
BBX 8 16 0 -2
BITMAP
00
00
00
00
00
00
C6
7C
6C
6C
6C
7C
C6
00
00
00
ENDCHAR
STARTCHAR U+00A5
ENCODING 165
SWIDTH 500 0
DWIDTH 8 0
BBX 8 16 0 -2
BITMAP
00
00
00
66
66
3C
3C
7E
18
7E
18
18
18
18
00
00
ENDCHAR
STARTCHAR U+00A6
ENCODING 166
SWIDTH 500 0
DWIDTH 8 0
BBX 8 16 0 -2
BITMAP
00
00
00
18
18
18
18
18
00
18
18
18
18
18
00
00
ENDCHAR
STARTCHAR U+00A7
ENCODING 167
SWIDTH 500 0
DWIDTH 8 0
BBX 8 16 0 -2
BITMAP
00
00
00
3C
66
60
38
6C
66
36
1C
06
66
3C
00
00
ENDCHAR
STARTCHAR U+00A8
ENCODING 168
SWIDTH 500 0
DWIDTH 8 0
BBX 8 16 0 -2
BITMAP
00
00
00
6C
6C
00
00
00
00
00
00
00
00
00
00
00
ENDCHAR
STARTCHAR U+00A9
ENCODING 169
SWIDTH 500 0
DWIDTH 8 0
BBX 8 16 0 -2
BITMAP
00
00
00
38
6C
C6
BA
AA
A2
AA
BA
C6
6C
38
00
00
ENDCHAR
STARTCHAR U+00AA
ENCODING 170
SWIDTH 500 0
DWIDTH 8 0
BBX 8 16 0 -2
BITMAP
70
98
78
D8
D8
78
00
00
00
00
00
00
00
00
00
00
ENDCHAR
STARTCHAR U+00AB
ENCODING 171
SWIDTH 500 0
DWIDTH 8 0
BBX 8 16 0 -2
BITMAP
00
00
00
36
36
6C
6C
D8
D8
6C
6C
36
36
00
00
00
ENDCHAR
STARTCHAR U+00AC
ENCODING 172
SWIDTH 500 0
DWIDTH 8 0
BBX 8 16 0 -2
BITMAP
00
00
00
00
00
00
FE
06
06
06
06
06
06
00
00
00
ENDCHAR
STARTCHAR U+00AD
ENCODING 173
SWIDTH 500 0
DWIDTH 8 0
BBX 8 16 0 -2
BITMAP
00
00
00
00
00
00
7C
00
00
00
00
00
00
00
00
00
ENDCHAR
STARTCHAR U+00AE
ENCODING 174
SWIDTH 500 0
DWIDTH 8 0
BBX 8 16 0 -2
BITMAP
00
00
00
38
6C
C6
B2
AA
B2
AA
AA
C6
6C
38
00
00
ENDCHAR
STARTCHAR U+00AF
ENCODING 175
SWIDTH 500 0
DWIDTH 8 0
BBX 8 16 0 -2
BITMAP
7E
00
00
00
00
00
00
00
00
00
00
00
00
00
00
00
ENDCHAR
STARTCHAR U+00B0
ENCODING 176
SWIDTH 500 0
DWIDTH 8 0
BBX 8 16 0 -2
BITMAP
38
6C
6C
38
00
00
00
00
00
00
00
00
00
00
00
00
ENDCHAR
STARTCHAR U+00B1
ENCODING 177
SWIDTH 500 0
DWIDTH 8 0
BBX 8 16 0 -2
BITMAP
00
00
00
18
18
18
7E
18
18
18
00
00
7E
00
00
00
ENDCHAR
STARTCHAR U+00B2
ENCODING 178
SWIDTH 500 0
DWIDTH 8 0
BBX 8 16 0 -2
BITMAP
E0
30
30
60
C0
F0
00
00
00
00
00
00
00
00
00
00
ENDCHAR
STARTCHAR U+00B3
ENCODING 179
SWIDTH 500 0
DWIDTH 8 0
BBX 8 16 0 -2
BITMAP
E0
30
60
30
30
E0
00
00
00
00
00
00
00
00
00
00
ENDCHAR
STARTCHAR U+00B4
ENCODING 180
SWIDTH 500 0
DWIDTH 8 0
BBX 8 16 0 -2
BITMAP
30
60
C0
00
00
00
00
00
00
00
00
00
00
00
00
00
ENDCHAR
STARTCHAR U+00B5
ENCODING 181
SWIDTH 500 0
DWIDTH 8 0
BBX 8 16 0 -2
BITMAP
00
00
00
00
00
00
C6
C6
C6
C6
C6
C6
E6
DA
C0
C0
ENDCHAR
STARTCHAR U+00B6
ENCODING 182
SWIDTH 500 0
DWIDTH 8 0
BBX 8 16 0 -2
BITMAP
00
00
00
7E
EC
EC
EC
EC
6C
6C
6C
6C
6C
6C
00
00
ENDCHAR
STARTCHAR U+00B7
ENCODING 183
SWIDTH 500 0
DWIDTH 8 0
BBX 8 16 0 -2
BITMAP
00
00
00
00
00
00
18
18
00
00
00
00
00
00
00
00
ENDCHAR
STARTCHAR U+00B8
ENCODING 184
SWIDTH 500 0
DWIDTH 8 0
BBX 8 16 0 -2
BITMAP
00
00
00
00
00
00
00
00
00
00
00
00
30
38
0C
78
ENDCHAR
STARTCHAR U+00B9
ENCODING 185
SWIDTH 500 0
DWIDTH 8 0
BBX 8 16 0 -2
BITMAP
60
E0
60
60
60
60
00
00
00
00
00
00
00
00
00
00
ENDCHAR
STARTCHAR U+00BA
ENCODING 186
SWIDTH 500 0
DWIDTH 8 0
BBX 8 16 0 -2
BITMAP
70
D8
D8
D8
70
00
00
00
00
00
00
00
00
00
00
00
ENDCHAR
STARTCHAR U+00BB
ENCODING 187
SWIDTH 500 0
DWIDTH 8 0
BBX 8 16 0 -2
BITMAP
00
00
00
D8
D8
6C
6C
36
36
6C
6C
D8
D8
00
00
00
ENDCHAR
STARTCHAR U+00BC
ENCODING 188
SWIDTH 500 0
DWIDTH 8 0
BBX 8 16 0 -2
BITMAP
00
00
00
66
E6
6C
6C
78
7C
3C
6C
6C
FE
CC
00
00
ENDCHAR
STARTCHAR U+00BD
ENCODING 189
SWIDTH 500 0
DWIDTH 8 0
BBX 8 16 0 -2
BITMAP
00
00
00
66
E6
6C
6C
78
7C
36
66
6C
D8
DE
00
00
ENDCHAR
STARTCHAR U+00BE
ENCODING 190
SWIDTH 500 0
DWIDTH 8 0
BBX 8 16 0 -2
BITMAP
00
00
00
E6
36
6C
3C
38
FC
3C
6C
6C
FE
CC
00
00
ENDCHAR
STARTCHAR U+00BF
ENCODING 191
SWIDTH 500 0
DWIDTH 8 0
BBX 8 16 0 -2
BITMAP
00
00
00
18
18
00
18
18
18
30
60
66
66
3C
00
00
ENDCHAR
STARTCHAR U+00C0
ENCODING 192
SWIDTH 500 0
DWIDTH 8 0
BBX 8 16 0 -2
BITMAP
70
38
00
10
38
38
6C
6C
C6
C6
FE
C6
C6
C6
00
00
ENDCHAR
STARTCHAR U+00C1
ENCODING 193
SWIDTH 500 0
DWIDTH 8 0
BBX 8 16 0 -2
BITMAP
1C
38
00
10
38
38
6C
6C
C6
C6
FE
C6
C6
C6
00
00
ENDCHAR
STARTCHAR U+00C2
ENCODING 194
SWIDTH 500 0
DWIDTH 8 0
BBX 8 16 0 -2
BITMAP
38
6C
00
10
38
38
6C
6C
C6
C6
FE
C6
C6
C6
00
00
ENDCHAR
STARTCHAR U+00C3
ENCODING 195
SWIDTH 500 0
DWIDTH 8 0
BBX 8 16 0 -2
BITMAP
76
DC
00
10
38
38
6C
6C
C6
C6
FE
C6
C6
C6
00
00
ENDCHAR
STARTCHAR U+00C4
ENCODING 196
SWIDTH 500 0
DWIDTH 8 0
BBX 8 16 0 -2
BITMAP
6C
6C
00
10
38
38
6C
6C
C6
C6
FE
C6
C6
C6
00
00
ENDCHAR
STARTCHAR U+00C5
ENCODING 197
SWIDTH 500 0
DWIDTH 8 0
BBX 8 16 0 -2
BITMAP
7C
6C
7C
10
38
38
6C
6C
C6
C6
FE
C6
C6
C6
00
00
ENDCHAR
STARTCHAR U+00C6
ENCODING 198
SWIDTH 500 0
DWIDTH 8 0
BBX 8 16 0 -2
BITMAP
00
00
00
3E
38
78
78
D8
DE
D8
F8
D8
D8
DE
00
00
ENDCHAR
STARTCHAR U+00C7
ENCODING 199
SWIDTH 500 0
DWIDTH 8 0
BBX 8 16 0 -2
BITMAP
00
00
00
3C
66
C2
C0
C0
C0
C0
C0
C2
66
3C
18
70
ENDCHAR
STARTCHAR U+00C8
ENCODING 200
SWIDTH 500 0
DWIDTH 8 0
BBX 8 16 0 -2
BITMAP
70
38
00
FE
C0
C0
C0
C0
FC
C0
C0
C0
C0
FE
00
00
ENDCHAR
STARTCHAR U+00C9
ENCODING 201
SWIDTH 500 0
DWIDTH 8 0
BBX 8 16 0 -2
BITMAP
1C
38
00
FE
C0
C0
C0
C0
FC
C0
C0
C0
C0
FE
00
00
ENDCHAR
STARTCHAR U+00CA
ENCODING 202
SWIDTH 500 0
DWIDTH 8 0
BBX 8 16 0 -2
BITMAP
38
6C
00
FE
C0
C0
C0
C0
FC
C0
C0
C0
C0
FE
00
00
ENDCHAR
STARTCHAR U+00CB
ENCODING 203
SWIDTH 500 0
DWIDTH 8 0
BBX 8 16 0 -2
BITMAP
6C
6C
00
FE
C0
C0
C0
C0
FC
C0
C0
C0
C0
FE
00
00
ENDCHAR
STARTCHAR U+00CC
ENCODING 204
SWIDTH 500 0
DWIDTH 8 0
BBX 8 16 0 -2
BITMAP
38
1C
00
18
18
18
18
18
18
18
18
18
18
18
00
00
ENDCHAR
STARTCHAR U+00CD
ENCODING 205
SWIDTH 500 0
DWIDTH 8 0
BBX 8 16 0 -2
BITMAP
1C
38
00
18
18
18
18
18
18
18
18
18
18
18
00
00
ENDCHAR
STARTCHAR U+00CE
ENCODING 206
SWIDTH 500 0
DWIDTH 8 0
BBX 8 16 0 -2
BITMAP
38
6C
00
18
18
18
18
18
18
18
18
18
18
18
00
00
ENDCHAR
STARTCHAR U+00CF
ENCODING 207
SWIDTH 500 0
DWIDTH 8 0
BBX 8 16 0 -2
BITMAP
66
66
00
18
18
18
18
18
18
18
18
18
18
18
00
00
ENDCHAR
STARTCHAR U+00D0
ENCODING 208
SWIDTH 500 0
DWIDTH 8 0
BBX 8 16 0 -2
BITMAP
00
00
00
78
6C
66
66
66
F6
66
66
66
6C
78
00
00
ENDCHAR
STARTCHAR U+00D1
ENCODING 209
SWIDTH 500 0
DWIDTH 8 0
BBX 8 16 0 -2
BITMAP
76
DC
00
C6
E6
E6
F6
F6
DE
DE
DE
CE
CE
C6
00
00
ENDCHAR
STARTCHAR U+00D2
ENCODING 210
SWIDTH 500 0
DWIDTH 8 0
BBX 8 16 0 -2
BITMAP
1C
38
00
38
6C
C6
C6
C6
C6
C6
C6
C6
6C
38
00
00
ENDCHAR
STARTCHAR U+00D3
ENCODING 211
SWIDTH 500 0
DWIDTH 8 0
BBX 8 16 0 -2
BITMAP
70
38
00
38
6C
C6
C6
C6
C6
C6
C6
C6
6C
38
00
00
ENDCHAR
STARTCHAR U+00D4
ENCODING 212
SWIDTH 500 0
DWIDTH 8 0
BBX 8 16 0 -2
BITMAP
38
6C
00
38
6C
C6
C6
C6
C6
C6
C6
C6
6C
38
00
00
ENDCHAR
STARTCHAR U+00D5
ENCODING 213
SWIDTH 500 0
DWIDTH 8 0
BBX 8 16 0 -2
BITMAP
76
DC
00
38
6C
C6
C6
C6
C6
C6
C6
C6
6C
38
00
00
ENDCHAR
STARTCHAR U+00D6
ENCODING 214
SWIDTH 500 0
DWIDTH 8 0
BBX 8 16 0 -2
BITMAP
6C
6C
00
38
6C
C6
C6
C6
C6
C6
C6
C6
6C
38
00
00
ENDCHAR
STARTCHAR U+00D7
ENCODING 215
SWIDTH 500 0
DWIDTH 8 0
BBX 8 16 0 -2
BITMAP
00
00
00
00
00
00
C6
6C
38
10
38
6C
C6
00
00
00
ENDCHAR
STARTCHAR U+00D8
ENCODING 216
SWIDTH 500 0
DWIDTH 8 0
BBX 8 16 0 -2
BITMAP
00
00
00
3A
6E
CC
CE
DE
D6
D6
F6
66
EC
B8
00
00
ENDCHAR
STARTCHAR U+00D9
ENCODING 217
SWIDTH 500 0
DWIDTH 8 0
BBX 8 16 0 -2
BITMAP
70
38
00
C6
C6
C6
C6
C6
C6
C6
C6
C6
C6
7C
00
00
ENDCHAR
STARTCHAR U+00DA
ENCODING 218
SWIDTH 500 0
DWIDTH 8 0
BBX 8 16 0 -2
BITMAP
1C
38
00
C6
C6
C6
C6
C6
C6
C6
C6
C6
C6
7C
00
00
ENDCHAR
STARTCHAR U+00DB
ENCODING 219
SWIDTH 500 0
DWIDTH 8 0
BBX 8 16 0 -2
BITMAP
38
6C
00
C6
C6
C6
C6
C6
C6
C6
C6
C6
C6
7C
00
00
ENDCHAR
STARTCHAR U+00DC
ENCODING 220
SWIDTH 500 0
DWIDTH 8 0
BBX 8 16 0 -2
BITMAP
6C
6C
00
C6
C6
C6
C6
C6
C6
C6
C6
C6
C6
7C
00
00
ENDCHAR
STARTCHAR U+00DD
ENCODING 221
SWIDTH 500 0
DWIDTH 8 0
BBX 8 16 0 -2
BITMAP
1C
38
00
66
66
66
3C
3C
18
18
18
18
18
18
00
00
ENDCHAR
STARTCHAR U+00DE
ENCODING 222
SWIDTH 500 0
DWIDTH 8 0
BBX 8 16 0 -2
BITMAP
00
00
00
C0
C0
FC
C6
C6
C6
C6
C6
FC
C0
C0
00
00
ENDCHAR
STARTCHAR U+00DF
ENCODING 223
SWIDTH 500 0
DWIDTH 8 0
BBX 8 16 0 -2
BITMAP
00
00
00
78
CC
CC
CC
D8
CC
C6
C6
C6
F6
DC
00
00
ENDCHAR
STARTCHAR U+00E0
ENCODING 224
SWIDTH 500 0
DWIDTH 8 0
BBX 8 16 0 -2
BITMAP
00
00
00
38
1C
00
3C
66
06
3E
66
66
66
3E
00
00
ENDCHAR
STARTCHAR U+00E1
ENCODING 225
SWIDTH 500 0
DWIDTH 8 0
BBX 8 16 0 -2
BITMAP
00
00
00
1C
38
00
3C
66
06
3E
66
66
66
3E
00
00
ENDCHAR
STARTCHAR U+00E2
ENCODING 226
SWIDTH 500 0
DWIDTH 8 0
BBX 8 16 0 -2
BITMAP
00
00
00
1C
36
00
3C
66
06
3E
66
66
66
3E
00
00
ENDCHAR
STARTCHAR U+00E3
ENCODING 227
SWIDTH 500 0
DWIDTH 8 0
BBX 8 16 0 -2
BITMAP
00
00
00
76
DC
00
3C
66
06
3E
66
66
66
3E
00
00
ENDCHAR
STARTCHAR U+00E4
ENCODING 228
SWIDTH 500 0
DWIDTH 8 0
BBX 8 16 0 -2
BITMAP
00
00
00
66
66
00
3C
66
06
3E
66
66
66
3E
00
00
ENDCHAR
STARTCHAR U+00E5
ENCODING 229
SWIDTH 500 0
DWIDTH 8 0
BBX 8 16 0 -2
BITMAP
00
00
00
3C
2C
18
3C
66
06
3E
66
66
66
3E
00
00
ENDCHAR
STARTCHAR U+00E6
ENCODING 230
SWIDTH 500 0
DWIDTH 8 0
BBX 8 16 0 -2
BITMAP
00
00
00
00
00
00
6C
DA
1A
7A
DE
D8
DA
6C
00
00
ENDCHAR
STARTCHAR U+00E7
ENCODING 231
SWIDTH 500 0
DWIDTH 8 0
BBX 8 16 0 -2
BITMAP
00
00
00
00
00
7C
C6
C0
C0
C0
C0
C6
7C
18
0C
38
ENDCHAR
STARTCHAR U+00E8
ENCODING 232
SWIDTH 500 0
DWIDTH 8 0
BBX 8 16 0 -2
BITMAP
00
00
00
70
38
00
7C
C6
C6
FE
C0
C0
C6
7C
00
00
ENDCHAR
STARTCHAR U+00E9
ENCODING 233
SWIDTH 500 0
DWIDTH 8 0
BBX 8 16 0 -2
BITMAP
00
00
00
1C
38
00
7C
C6
C6
FE
C0
C0
C6
7C
00
00
ENDCHAR
STARTCHAR U+00EA
ENCODING 234
SWIDTH 500 0
DWIDTH 8 0
BBX 8 16 0 -2
BITMAP
00
00
00
38
6C
00
7C
C6
C6
FE
C0
C0
C6
7C
00
00
ENDCHAR
STARTCHAR U+00EB
ENCODING 235
SWIDTH 500 0
DWIDTH 8 0
BBX 8 16 0 -2
BITMAP
00
00
00
6C
6C
00
7C
C6
C6
FE
C0
C0
C6
7C
00
00
ENDCHAR
STARTCHAR U+00EC
ENCODING 236
SWIDTH 500 0
DWIDTH 8 0
BBX 8 16 0 -2
BITMAP
00
00
00
38
1C
00
18
18
18
18
18
18
18
18
00
00
ENDCHAR
STARTCHAR U+00ED
ENCODING 237
SWIDTH 500 0
DWIDTH 8 0
BBX 8 16 0 -2
BITMAP
00
00
00
1C
38
00
18
18
18
18
18
18
18
18
00
00
ENDCHAR
STARTCHAR U+00EE
ENCODING 238
SWIDTH 500 0
DWIDTH 8 0
BBX 8 16 0 -2
BITMAP
00
00
00
1C
36
00
18
18
18
18
18
18
18
18
00
00
ENDCHAR
STARTCHAR U+00EF
ENCODING 239
SWIDTH 500 0
DWIDTH 8 0
BBX 8 16 0 -2
BITMAP
00
00
00
66
66
00
18
18
18
18
18
18
18
18
00
00
ENDCHAR
STARTCHAR U+00F0
ENCODING 240
SWIDTH 500 0
DWIDTH 8 0
BBX 8 16 0 -2
BITMAP
00
00
00
EC
38
EC
06
7E
C6
C6
C6
C6
C6
7C
00
00
ENDCHAR
STARTCHAR U+00F1
ENCODING 241
SWIDTH 500 0
DWIDTH 8 0
BBX 8 16 0 -2
BITMAP
00
00
00
76
DC
00
DC
E6
C6
C6
C6
C6
C6
C6
00
00
ENDCHAR
STARTCHAR U+00F2
ENCODING 242
SWIDTH 500 0
DWIDTH 8 0
BBX 8 16 0 -2
BITMAP
00
00
00
70
38
00
7C
C6
C6
C6
C6
C6
C6
7C
00
00
ENDCHAR
STARTCHAR U+00F3
ENCODING 243
SWIDTH 500 0
DWIDTH 8 0
BBX 8 16 0 -2
BITMAP
00
00
00
1C
38
00
7C
C6
C6
C6
C6
C6
C6
7C
00
00
ENDCHAR
STARTCHAR U+00F4
ENCODING 244
SWIDTH 500 0
DWIDTH 8 0
BBX 8 16 0 -2
BITMAP
00
00
00
38
6C
00
7C
C6
C6
C6
C6
C6
C6
7C
00
00
ENDCHAR
STARTCHAR U+00F5
ENCODING 245
SWIDTH 500 0
DWIDTH 8 0
BBX 8 16 0 -2
BITMAP
00
00
00
76
DC
00
7C
C6
C6
C6
C6
C6
C6
7C
00
00
ENDCHAR
STARTCHAR U+00F6
ENCODING 246
SWIDTH 500 0
DWIDTH 8 0
BBX 8 16 0 -2
BITMAP
00
00
00
6C
6C
00
7C
C6
C6
C6
C6
C6
C6
7C
00
00
ENDCHAR
STARTCHAR U+00F7
ENCODING 247
SWIDTH 500 0
DWIDTH 8 0
BBX 8 16 0 -2
BITMAP
00
00
00
18
18
00
00
7E
00
00
18
18
00
00
00
00
ENDCHAR
STARTCHAR U+00F8
ENCODING 248
SWIDTH 500 0
DWIDTH 8 0
BBX 8 16 0 -2
BITMAP
00
00
00
00
06
06
7C
CE
DE
D6
D6
F6
E6
7C
C0
C0
ENDCHAR
STARTCHAR U+00F9
ENCODING 249
SWIDTH 500 0
DWIDTH 8 0
BBX 8 16 0 -2
BITMAP
00
00
00
38
1C
00
66
66
66
66
66
66
66
3E
00
00
ENDCHAR
STARTCHAR U+00FA
ENCODING 250
SWIDTH 500 0
DWIDTH 8 0
BBX 8 16 0 -2
BITMAP
00
00
00
1C
38
00
66
66
66
66
66
66
66
3E
00
00
ENDCHAR
STARTCHAR U+00FB
ENCODING 251
SWIDTH 500 0
DWIDTH 8 0
BBX 8 16 0 -2
BITMAP
00
00
00
1C
36
00
66
66
66
66
66
66
66
3E
00
00
ENDCHAR
STARTCHAR U+00FC
ENCODING 252
SWIDTH 500 0
DWIDTH 8 0
BBX 8 16 0 -2
BITMAP
00
00
00
66
66
00
66
66
66
66
66
66
66
3E
00
00
ENDCHAR
STARTCHAR U+00FD
ENCODING 253
SWIDTH 500 0
DWIDTH 8 0
BBX 8 16 0 -2
BITMAP
00
00
00
1C
38
00
C6
C6
6C
6C
38
38
18
30
30
E0
ENDCHAR
STARTCHAR U+00FE
ENCODING 254
SWIDTH 500 0
DWIDTH 8 0
BBX 8 16 0 -2
BITMAP
00
00
00
C0
C0
C0
FC
C6
C6
C6
C6
C6
FC
C0
C0
C0
ENDCHAR
STARTCHAR U+00FF
ENCODING 255
SWIDTH 500 0
DWIDTH 8 0
BBX 8 16 0 -2
BITMAP
00
00
00
6C
6C
00
C6
C6
6C
6C
38
38
18
30
30
E0
ENDCHAR
STARTCHAR U+0153
ENCODING 339
SWIDTH 500 0
DWIDTH 8 0
BBX 8 16 0 -2
BITMAP
00
00
00
6C
FE
B6
B6
BE
B0
B0
B0
B6
FE
6C
00
00
ENDCHAR
STARTCHAR U+20AC
ENCODING 8364
SWIDTH 500 0
DWIDTH 8 0
BBX 8 16 0 -2
BITMAP
00
00
00
3C
66
40
40
FE
40
FE
40
40
66
3C
00
00
ENDCHAR
ENDFONT
